<svg width="90" height="121" viewBox="0 0 90 121" fill="none" xmlns="http://www.w3.org/2000/svg">
<g clip-path="url(#clip0)">
<path d="M45.0302 34.5627L30.0605 25.9373L45.0302 17.2814L60.0302 25.9373L45.0302 34.5627Z" fill="#4881FF"/>
<path d="M60.0303 43.2186L45.0303 51.8441V34.5627L60.0303 25.9373V43.2186Z" fill="#4971FF"/>
<path d="M45.0302 51.8441L30.0605 43.2186V25.9373L45.0302 34.5627V51.8441Z" fill="#0194FF"/>
<path d="M30.0608 25.9373L15.0911 17.2814L30.0608 8.65594L45.0305 17.2814L30.0608 25.9373Z" fill="#D8D8D8"/>
<path d="M30.0608 43.2187L15.0911 34.5627V17.2814L30.0608 25.9373V43.2187Z" fill="#DDDDDD"/>
<path d="M15.0906 17.2814L0.12085 8.65592L15.0906 0L30.0603 8.65592L15.0906 17.2814Z" fill="#D8D8D8"/>
<path d="M15.0905 34.5627L0.12085 25.9373V8.65594L15.0905 17.2814V34.5627Z" fill="#DDDDDD"/>
<path d="M60.0303 25.9373L45.0303 17.2814L60.0303 8.65594L75 17.2814L60.0303 25.9373Z" fill="#D8D8D8"/>
<path d="M75.0002 34.5627L60.0305 43.2187V25.9373L75.0002 17.2814V34.5627Z" fill="#D1D1D1"/>
<path d="M75.0002 17.2814L60.0305 8.65592L75.0002 0L89.9699 8.65592L75.0002 17.2814Z" fill="#D8D8D8"/>
<path d="M89.9699 25.9373L75.0002 34.5627V17.2814L89.9699 8.65594V25.9373Z" fill="#D1D1D1"/>
<path d="M60.0303 60.5L45.0303 69.1559V51.8441L60.0303 43.2186V60.5Z" fill="#D1D1D1"/>
<path d="M45.0302 69.1559L30.0605 60.5V43.2186L45.0302 51.8441V69.1559Z" fill="#DDDDDD"/>
<path d="M60.0303 77.7814L45.0303 86.4373V69.1559L60.0303 60.5V77.7814Z" fill="#D1D1D1"/>
<path d="M45.0302 86.4373L30.0605 77.7814V60.5L45.0302 69.1559V86.4373Z" fill="#DDDDDD"/>
<path d="M60.0303 95.0627L45.0303 103.719V86.4373L60.0303 77.7814V95.0627Z" fill="#D1D1D1"/>
<path d="M45.0302 103.719L30.0605 95.0627V77.7814L45.0302 86.4373V103.719Z" fill="#DDDDDD"/>
<path d="M60.0303 112.344L45.0303 121V103.719L60.0303 95.0627V112.344Z" fill="#D1D1D1"/>
<path d="M45.0302 121L30.0605 112.344V95.0627L45.0302 103.719V121Z" fill="#DDDDDD"/>
</g>
<defs>
<clipPath id="clip0">
<rect width="90" height="121" fill="white"/>
</clipPath>
</defs>
</svg>
