<svg width="21" height="22" viewBox="0 0 21 22" fill="none" xmlns="http://www.w3.org/2000/svg">
<g clip-path="url(#clip0)">
<path d="M21.0001 11.2526C21.0001 10.5049 20.9411 9.75308 20.8151 9.01746H10.7107V13.2534H16.497C16.2569 14.6195 15.4854 15.828 14.3557 16.596V19.3445H17.8078C19.835 17.4286 21.0001 14.5993 21.0001 11.2526Z" fill="#4285F4"/>
<path d="M10.7107 22C13.5999 22 16.0365 21.0259 17.8117 19.3445L14.3596 16.596C13.3992 17.267 12.1593 17.6469 10.7146 17.6469C7.91989 17.6469 5.55025 15.7108 4.70002 13.1078H1.1377V15.9412C2.95625 19.6557 6.66028 22 10.7107 22Z" fill="#34A853"/>
<path d="M4.69598 13.1078C4.24725 11.7417 4.24725 10.2624 4.69598 8.8962V6.06284H1.1376C-0.381803 9.17105 -0.381803 12.833 1.1376 15.9412L4.69598 13.1078Z" fill="#FBBC04"/>
<path d="M10.7107 4.35311C12.238 4.32886 13.7141 4.91897 14.8202 6.0022L17.8786 2.86165C15.942 0.994298 13.3716 -0.0323415 10.7107 -6.40354e-06C6.66028 -6.40354e-06 2.95625 2.34429 1.1377 6.06283L4.69608 8.89619C5.54238 6.28917 7.91595 4.35311 10.7107 4.35311Z" fill="#EA4335"/>
</g>
<defs>
<clipPath id="clip0">
<rect width="21" height="22" fill="white"/>
</clipPath>
</defs>
</svg>
